<svg
  viewBox="0 0 60 60"
  xmlns="http://www.w3.org/2000/svg"
  fill-rule="evenodd"
  clip-rule="evenodd"
  stroke-linecap="round"
  stroke-linejoin="round"
  stroke-miterlimit="1.5"
>
  <path fill="none" d="M0 0h60v60H0z" />
  <path
    d="M673 7h-21v3.91l16.201.103.042 21.89H673V7z"
    fill="none"
    stroke="#fff"
    stroke-width="4"
    transform="matrix(.61937 .00155 -.00182 .73036 -369.343 29.005)"
  />
  <path
    d="M673 7h-21v3.91l16.201.103.042 21.89H673V7z"
    fill="none"
    stroke="#fff"
    stroke-width="4"
    transform="matrix(.61937 .00155 -.00182 .73036 -366.081 26.045)"
  />
  <path
    d="M673 7h-21v25.903h21V7z"
    fill="none"
    stroke="#fff"
    stroke-width="4"
    transform="matrix(.61937 .00155 -.00182 .73036 -372.321 31.962)"
  />
  <path
    d="M673 7h-21v3.91l16.201.103.042 21.89H673V7z"
    fill="none"
    stroke="#fff"
    stroke-width="4"
    transform="matrix(.61937 .00155 -.00182 .73036 -395.343 29.005)"
  />
  <path
    d="M673 7h-21v3.91l16.201.103.042 21.89H673V7z"
    fill="none"
    stroke="#fff"
    stroke-width="4"
    transform="matrix(.61937 .00155 -.00182 .73036 -392.081 26.045)"
  />
  <path
    d="M673 7h-21v25.903h21V7z"
    fill="none"
    stroke="#fff"
    stroke-width="4"
    transform="matrix(.61937 .00155 -.00182 .73036 -398.321 31.962)"
  />
  <g>
    <path
      d="M673 7h-21v3.91l16.201.103.042 21.89H673V7z"
      fill="none"
      stroke="#fff"
      stroke-width="4"
      transform="matrix(.61937 .00155 -.00182 .73036 -365.934 -.43)"
    />
    <path
      d="M673 7h-21v3.91l16.201.103.042 21.89H673V7z"
      fill="none"
      stroke="#fff"
      stroke-width="4"
      transform="matrix(.61937 .00155 -.00182 .73036 -362.672 -3.39)"
    />
    <path
      d="M673 7h-21v25.903h21V7z"
      fill="none"
      stroke="#fff"
      stroke-width="4"
      transform="matrix(.61937 .00155 -.00182 .73036 -368.912 2.526)"
    />
  </g>
  <g>
    <path
      d="M673 7h-21v3.91l16.201.103.042 21.89H673V7z"
      fill="none"
      stroke="#fff"
      stroke-width="4"
      transform="matrix(.61937 .00155 -.00182 .73036 -391.956 -.43)"
    />
    <path
      d="M673 7h-21v3.91l16.201.103.042 21.89H673V7z"
      fill="none"
      stroke="#fff"
      stroke-width="4"
      transform="matrix(.61937 .00155 -.00182 .73036 -388.694 -3.39)"
    />
    <path
      d="M673 7h-21v25.903h21V7z"
      fill="none"
      stroke="#fff"
      stroke-width="4"
      transform="matrix(.61937 .00155 -.00182 .73036 -394.934 2.526)"
    />
  </g>
</svg>
